<svg xmlns="http://www.w3.org/2000/svg" viewBox="0 0 400 250">
  <defs>
    <radialGradient id="g1" cx=".35" cy=".3" r=".8"><stop offset="0" stop-color="#FFD3DC"/><stop offset=".6" stop-color="#FF8FA3"/></radialGradient>
    <radialGradient id="g2" cx=".35" cy=".3" r=".8"><stop offset="0" stop-color="#D6EEFF"/><stop offset=".6" stop-color="#6CC4F5"/></radialGradient>
    <radialGradient id="g3" cx=".35" cy=".3" r=".8"><stop offset="0" stop-color="#FFF1B0"/><stop offset=".6" stop-color="#FFD43B"/></radialGradient>
    <radialGradient id="g4" cx=".35" cy=".3" r=".8"><stop offset="0" stop-color="#E7DBFF"/><stop offset=".6" stop-color="#B892FF"/></radialGradient>
  </defs>
  <rect width="400" height="250" fill="#DDF0FF"/>
  <ellipse cx="70" cy="40" rx="34" ry="11" fill="#fff"/><ellipse cx="330" cy="30" rx="30" ry="9" fill="#fff"/>
  <rect x="110" y="10" width="180" height="38" rx="12" fill="#fff" stroke="#ECDFC8" stroke-width="3"/>
  <text x="200" y="36" text-anchor="middle" font-family="Fredoka, Jua, sans-serif" font-weight="700" font-size="24" fill="#22314A">6 × 7 = <tspan fill="#D97A1F">?</tspan></text>
  <g font-family="Fredoka, sans-serif" font-weight="700" font-size="20" text-anchor="middle">
    <path d="M90 128 q4 18 -2 34" stroke="#5D6C83" stroke-width="1.5" fill="none"/><ellipse cx="90" cy="102" rx="24" ry="28" fill="url(#g1)"/><text x="90" y="109" fill="#22314A">42</text>
    <path d="M170 140 q4 18 -2 34" stroke="#5D6C83" stroke-width="1.5" fill="none"/><ellipse cx="170" cy="114" rx="24" ry="28" fill="url(#g2)"/><text x="170" y="121" fill="#22314A">36</text>
    <path d="M250 122 q4 18 -2 34" stroke="#5D6C83" stroke-width="1.5" fill="none"/><ellipse cx="250" cy="96" rx="24" ry="28" fill="url(#g3)"/><text x="250" y="103" fill="#22314A">48</text>
    <path d="M325 136 q4 18 -2 34" stroke="#5D6C83" stroke-width="1.5" fill="none"/><ellipse cx="325" cy="110" rx="24" ry="28" fill="url(#g4)"/><text x="325" y="117" fill="#22314A">13</text>
  </g>
  <rect y="205" width="400" height="45" fill="#CDEBB4"/><rect y="205" width="400" height="4" fill="#B3DC93"/>
  <g transform="translate(150 175) scale(.38)">
    <path d="M58 142 Q18 142 6 106 Q30 126 62 118 Z" fill="#4CB963"/><path d="M86 88 L80 68 L98 82 Z M71 98 L60 80 L81 92 Z M59 112 L44 98 L67 106 Z M108 34 L110 14 L126 28 Z M128 28 L136 9 L146 26 Z" fill="#FF9F43"/><rect x="68" y="156" width="25" height="32" rx="11" fill="#3A9D51"/><rect x="106" y="156" width="25" height="32" rx="11" fill="#3A9D51"/><ellipse cx="96" cy="128" rx="47" ry="44" fill="#5CC46F"/><ellipse cx="108" cy="134" rx="26" ry="32" fill="#E8F7C8"/><rect x="92" y="26" width="112" height="80" rx="38" fill="#5CC46F"/><circle cx="150" cy="56" r="15" fill="#fff" stroke="#2E6B3A" stroke-width="2"/><circle cx="154" cy="58" r="8.5" fill="#22314A"/><path d="M140 84 Q166 104 194 82" stroke="#2E6B3A" stroke-width="3.5" fill="none" stroke-linecap="round"/>
  </g>
  <g transform="translate(225 208) rotate(-62)">
    <path d="M-6 -28 Q18 -16 12 0 Q18 16 -6 28" stroke="#8A5A2B" stroke-width="6" fill="none" stroke-linecap="round"/>
    <line x1="-6" y1="-28" x2="-6" y2="28" stroke="#22314A" stroke-width="1.5"/>
    <line x1="-6" y1="0" x2="48" y2="0" stroke="#8A5A2B" stroke-width="3"/><path d="M48 -5 L58 0 L48 5 Z" fill="#5D6C83"/>
  </g>
</svg>
