<svg xmlns="http://www.w3.org/2000/svg" viewBox="0 0 400 250">
  <defs>
    <radialGradient id="a" cx=".35" cy=".3" r=".8"><stop offset="0" stop-color="#C8F2CF"/><stop offset=".55" stop-color="#5CC46F"/><stop offset="1" stop-color="#2F8A47"/></radialGradient>
    <radialGradient id="b" cx=".35" cy=".3" r=".8"><stop offset="0" stop-color="#FFE3BF"/><stop offset=".55" stop-color="#FF9F43"/><stop offset="1" stop-color="#D97A1F"/></radialGradient>
    <g id="e1"><ellipse rx="15" ry="17" cy="2" fill="url(#a)" stroke="#2A6E3B" stroke-width="1.5"/><circle cx="-5" cy="-3" r="2.6" fill="#E8F7C8"/></g>
    <g id="e2"><ellipse rx="15" ry="17" cy="2" fill="url(#b)" stroke="#A85A12" stroke-width="1.5"/><circle cx="-5" cy="-3" r="2.6" fill="#FFF2DC"/></g>
  </defs>
  <rect width="400" height="250" fill="#F6E3C0"/>
  <rect x="60" y="15" width="280" height="220" rx="16" fill="#F1D29A" stroke="#C99A52" stroke-width="5"/>
  <g stroke="#8A6233" stroke-width="1.6">
    <line x1="80" y1="35" x2="320" y2="35"/><line x1="80" y1="65" x2="320" y2="65"/><line x1="80" y1="95" x2="320" y2="95"/><line x1="80" y1="125" x2="320" y2="125"/><line x1="80" y1="155" x2="320" y2="155"/><line x1="80" y1="185" x2="320" y2="185"/><line x1="80" y1="215" x2="320" y2="215"/>
    <line x1="80" y1="35" x2="80" y2="215"/><line x1="110" y1="35" x2="110" y2="215"/><line x1="140" y1="35" x2="140" y2="215"/><line x1="170" y1="35" x2="170" y2="215"/><line x1="200" y1="35" x2="200" y2="215"/><line x1="230" y1="35" x2="230" y2="215"/><line x1="260" y1="35" x2="260" y2="215"/><line x1="290" y1="35" x2="290" y2="215"/><line x1="320" y1="35" x2="320" y2="215"/>
  </g>
  <use href="#e1" x="110" y="65"/><use href="#e1" x="140" y="95"/><use href="#e1" x="170" y="125"/><use href="#e1" x="200" y="155"/><use href="#e1" x="230" y="185"/>
  <use href="#e2" x="170" y="95"/><use href="#e2" x="200" y="125"/><use href="#e2" x="230" y="155"/><use href="#e2" x="260" y="125"/><use href="#e2" x="140" y="155"/>
  <line x1="110" y1="65" x2="230" y2="185" stroke="#E5546B" stroke-width="5" stroke-linecap="round" opacity=".8"/>
</svg>
